<svg width="158" height="35" viewBox="0 0 158 35" fill="none" xmlns="http://www.w3.org/2000/svg">
<path d="M156.917 33.2937H151.365L152.441 27.7218H158L156.917 33.2937Z" fill="#FF8224"/>
<path d="M78.0473 33.2937H72.0774L74.6545 20.0202C74.8807 18.8522 75.0178 17.911 75.0658 17.2102C75.1137 16.5026 74.9972 15.8568 74.7231 15.2728C74.4489 14.6888 73.9897 14.2285 73.3522 13.8987C72.7148 13.5689 72.0363 13.404 71.3166 13.404C69.4591 13.404 68.1226 13.9056 67.2932 14.9086C66.4708 15.9117 65.9019 16.8667 65.5934 17.7667C65.285 18.6667 65.0383 19.5667 64.8669 20.4668L64.6818 21.4149L62.3789 33.2937H56.409L58.9861 20.0202L59.1026 19.4362C59.2808 18.5087 59.3699 17.7667 59.3768 17.2102C59.3768 16.6537 59.2329 16.0629 58.9381 15.4308C58.6434 14.7987 58.1705 14.3041 57.5193 13.9468C56.8751 13.5895 56.1759 13.404 55.422 13.404C53.3247 13.404 51.8579 14.1117 51.0148 15.5201C50.1718 16.9285 49.5069 18.8934 49.0203 21.4149L46.7173 33.2937H40.7474L45.5933 8.31311H51.0697L50.6241 10.6078C51.3575 9.60474 52.3994 8.84213 53.7565 8.31998C55.1136 7.80471 56.4501 7.54363 57.7592 7.54363C60.5694 7.54363 62.5776 8.58106 63.7908 10.649L64.2158 11.4597L64.9971 10.649C66.0595 9.63222 67.2932 8.85587 68.6983 8.33372C70.1034 7.81158 71.5085 7.54363 72.9067 7.54363C74.49 7.54363 75.8677 7.7841 77.026 8.26502C78.1912 8.74594 79.1576 9.5429 79.9253 10.6696C80.693 11.7964 81.1179 13.0537 81.1933 14.4415C81.2687 15.8293 81.1248 17.4575 80.7615 19.3125L78.0541 33.2868L78.0473 33.2937Z" fill="#242E3D"/>
<path d="M109.96 20.8309C109.672 22.3286 109.068 23.9225 108.157 25.6333C107.245 27.3371 106.155 28.8005 104.901 30.0303C103.647 31.2532 102.139 32.2357 100.378 32.9708C98.6229 33.7059 96.8408 34.07 95.0451 34.07C93.2493 34.07 91.7414 33.7334 90.4323 33.067C89.1231 32.4005 88.143 31.3494 87.4919 29.9272L86.7448 33.3006H81.2684L87.7249 0H93.6948L91.5632 10.9788C92.6256 9.82459 93.9141 8.9658 95.4289 8.40243C96.9436 7.83906 98.4652 7.55738 99.9937 7.55738C103.585 7.55738 106.32 8.86962 108.191 11.4803C110.062 14.0979 110.645 17.2171 109.946 20.8309H109.96ZM103.983 20.879C104.387 18.7904 104.058 17.0316 102.982 15.6026C101.913 14.1735 100.33 13.4521 98.2322 13.4521C96.1348 13.4521 94.2705 14.1254 92.5433 15.4651C90.8161 16.8049 89.7537 18.495 89.363 20.5217C88.9381 22.6996 89.2808 24.5271 90.3911 26.0043C91.4946 27.4814 93.1533 28.2165 95.374 28.2165C97.4714 28.2165 99.3288 27.5157 100.946 26.1142C102.564 24.7126 103.578 22.9676 103.983 20.879Z" fill="#242E3D"/>
<path d="M138.369 20.6591C138.28 21.1057 138.136 21.6141 137.938 22.1843C137.739 22.7546 137.595 23.1874 137.506 23.4828H118.157C118.328 24.9119 118.931 26.0523 119.959 26.918C120.987 27.7768 122.269 28.2096 123.791 28.2096C126.217 28.2096 128.212 27.5089 129.768 26.0936H136.409C135.196 28.3333 133.297 30.2158 130.707 31.7547C128.116 33.2937 125.511 34.0563 122.872 34.0563C119.281 34.0563 116.443 32.7853 114.36 30.2433C112.276 27.7012 111.591 24.6233 112.29 21.0026C113.009 17.2927 114.894 14.1254 117.951 11.4941C121.008 8.86274 124.387 7.54363 128.102 7.54363C131.817 7.54363 134.394 8.84213 136.389 11.446C138.383 14.0499 139.041 17.114 138.356 20.6454L138.369 20.6591ZM132.79 18.1721C132.591 16.7155 131.961 15.5682 130.905 14.7163C129.843 13.8712 128.52 13.4453 126.93 13.4453C125.436 13.4453 123.935 13.885 122.434 14.7575C120.933 15.6369 119.822 16.7705 119.103 18.1652H132.797L132.79 18.1721Z" fill="#242E3D"/>
<path d="M153.915 13.4041C152.51 13.4041 151.297 13.7476 150.282 14.4346C149.268 15.1216 148.583 15.8705 148.233 16.6812C147.884 17.4919 147.582 18.5499 147.322 19.8691L144.717 33.2937H138.747L143.593 8.31313H149.028L148.59 10.5666C149.481 9.52918 150.406 8.77344 151.365 8.28565C152.325 7.79785 153.408 7.55052 154.601 7.55052H155.046L153.908 13.4041H153.915Z" fill="#242E3D"/>
<path d="M6.63474 8.3131H1.08294L0 13.885H5.55865L4.47571 19.4568H10.0344L12.1934 8.3131H6.63474Z" fill="#FF8224"/>
<path d="M35.9768 8.31311L35.3942 11.3086C33.6396 8.97266 30.9048 7.52989 27.5806 7.52989C20.8156 7.52989 14.1877 13.4727 12.7621 20.7965C11.3433 28.1272 15.6682 34.0632 22.4332 34.0632C25.7574 34.0632 29.0542 32.6204 31.7067 30.2845L31.1241 33.2799H36.6485L41.4943 8.29937H35.97L35.9768 8.31311ZM24.6813 28.1821C20.562 28.1821 17.8546 24.8775 18.6497 20.8034C19.4379 16.7293 23.4202 13.4246 27.5463 13.4246C31.6724 13.4246 34.1536 16.4888 33.6464 20.35L33.4682 21.2568C32.4812 25.118 28.6498 28.1821 24.6813 28.1821Z" fill="#242E3D"/>
</svg>
